<?xml version="1.0" encoding="UTF-8"?>
<svg id="Layer_1" data-name="Layer 1" xmlns="http://www.w3.org/2000/svg" version="1.1" viewBox="0 0 16 16">
  <defs>
    <style>
      .cls-1 {
        stroke-width: .75px;
      }

      .cls-1, .cls-2 {
        fill: none;
        stroke: #231f20;
        stroke-miterlimit: 10;
      }

      .cls-2 {
        stroke-width: .25px;
      }
    </style>
  </defs>
  <ellipse class="cls-2" cx="8.95" cy="9.2" rx=".89" ry="1.3"/>
  <path class="cls-2" d="M9.15,6.56c-.3-.11-.68-.83-.85-1.13s-.19-1.17-.3-.34.19,1.62.23,1.79.04.62-.26.62-.92-.69-1-1.05-.49-.75-.77-.92-.3-.7-.64-1.02-.21-1.05-.54-.68-.29,1.02-.44,1.45-.53.69-.53.69c0,0-.75.4-.55.76s.7.81,1.13,1.02.96.66.7.88-.75.3-.92.28-.53,0-.73.26-.49.73-.43.75.96-.41,1.24-.17,0,.75.19,1,.9.49.98.66-.54.45-.65.45-.18.38.14.53.46-.98,1.04-.6.54.55.35.85-.53.77-.26.85,1.05-.15,1.07-.22.34-1.26.51-1.49.43-.49.81-.43.45-.04.57.53-.01,1.52.2,1.58.64.34.53.04-.28-1.75-.34-1.88-.26-.66-.06-.94.53-.34.66-.96c.13-.62-.09-.77.17-1.24s1.17-1.3,1.64-1.56,1.6.02,1.3-1.11c-.3-1.13-.53-1.54-.53-1.54,0,0-.13.88-.53,1.45s-.62,1.03-1.34,1.75-.9,1.21-1.07.74-.19-1-.21-1.13-.51-.55-.51-.55Z"/>
  <path class="cls-1" d="M2.08,14s-.06-.22-.28-.72-.57-.76-.54-1.16.17-1.22.98-1.94.92-.97,1.01-1-1.37.63-1.79.43-.94-.34-.6-.88.46-.74.63-1.11.83-1,1.22-.85.54.28.54.28c0,0-.86-.88-.37-1.65s.71-.94.71-.94c0,0-.63-1.37.28-1.68s1.11.11,1.11.11l1.11-.23s.03-1.48,1.22-1.65,1.05.65,1.05.65c0,0,1.22-.6,1.42.57,0,0,.34-.74.74-.68s.6.57.46.83-.63,1.39-.65,1.54.14.39.24.43c.68.23.92-2.65,2.38-1,.65-.2,1.42,0,1.48.74s-.57,2.11-.57,2.11c0,0,1.34.38,1.11,1.3s-.43,1.15-.57,1.21-.63.43-.63.43c0,0,.63.57.43,1.11s-.57,1-.57,1c0,0,1.45.83.99,1.68s-1.68.77-1.73.11l-.03-.46s-.65.51-1.02.31l.1.96.02.15H2.08Z"/>
</svg>